<svg xmlns="http://www.w3.org/2000/svg" version="1.1" xmlns:xlink="http://www.w3.org/1999/xlink" xmlns:svgjs="http://svgjs.dev/svgjs" width="2000" height="409" viewBox="0 0 2000 409"><g transform="matrix(1,0,0,1,-1.2121212121212466,-0.9489745973257868)"><svg viewBox="0 0 396 81" data-background-color="#ffffff" preserveAspectRatio="xMidYMid meet" height="409" width="2000" xmlns="http://www.w3.org/2000/svg" xmlns:xlink="http://www.w3.org/1999/xlink"><g id="tight-bounds" transform="matrix(1,0,0,1,0.2400000000000091,0.18793873443371467)"><svg viewBox="0 0 395.52 80.62412253113254" height="80.62412253113254" width="395.52"><g><svg viewBox="0 0 519.0093290481333 105.79660128432845" height="80.62412253113254" width="395.52"><g><rect width="4.454285998613056" height="105.79660128432845" x="107.37460849817718" y="0" fill="#6c82cf" opacity="1" stroke-width="0" stroke="transparent" fill-opacity="1" class="rect-qz-0" data-fill-palette-color="primary" rx="1%" id="qz-0" data-palette-color="#6c82cf"></rect></g><g transform="matrix(1,0,0,1,123.48932904813331,0.2631756250853883)"><svg viewBox="0 0 395.52 105.27025003415767" height="105.27025003415767" width="395.52"><g id="textblocktransform"><svg viewBox="0 0 395.52 105.27025003415767" height="105.27025003415767" width="395.52" id="textblock"><g><svg viewBox="0 0 395.52 105.27025003415767" height="105.27025003415767" width="395.52"><g transform="matrix(1,0,0,1,0,0)"><svg width="395.52" viewBox="-0.5499999999999989 -37.1 370.65000000000003 95.9" height="105.27025003415767" data-palette-color="#6c82cf"><svg></svg><svg></svg><g class="wordmark-text-0" data-fill-palette-color="primary" id="text-0"><path d="M32.4-31.25l-2.75 6.05c-3-1.733-6.217-2.85-9.65-3.35v0 28.55h-8.1v-28.55c-3.433 0.5-6.667 1.617-9.7 3.35v0l-2.75-6.05c2.4-1.433 5-2.517 7.8-3.25 2.8-0.733 5.683-1.1 8.65-1.1v0c3 0 5.91 0.367 8.73 1.1 2.813 0.733 5.403 1.817 7.77 3.25zM52.25-26.9h7.8v26.9h-7.45v-3.1c-1.933 2.333-4.733 3.5-8.4 3.5v0c-2.533 0-4.823-0.567-6.87-1.7-2.053-1.133-3.663-2.75-4.83-4.85-1.167-2.1-1.75-4.533-1.75-7.3v0c0-2.767 0.583-5.2 1.75-7.3 1.167-2.1 2.777-3.717 4.83-4.85 2.047-1.133 4.337-1.7 6.87-1.7v0c3.433 0 6.117 1.083 8.05 3.25v0zM45.55-6c1.967 0 3.6-0.677 4.9-2.03 1.3-1.347 1.95-3.153 1.95-5.42v0c0-2.267-0.65-4.077-1.95-5.43-1.3-1.347-2.933-2.02-4.9-2.02v0c-2 0-3.65 0.673-4.95 2.02-1.3 1.353-1.95 3.163-1.95 5.43v0c0 2.267 0.65 4.073 1.95 5.42 1.3 1.353 2.95 2.03 4.95 2.03zM76.3 0.4c-2.233 0-4.417-0.277-6.55-0.83-2.133-0.547-3.833-1.237-5.1-2.07v0l2.6-5.6c1.2 0.767 2.65 1.39 4.35 1.87 1.7 0.487 3.367 0.73 5 0.73v0c3.3 0 4.95-0.817 4.95-2.45v0c0-0.767-0.45-1.317-1.35-1.65-0.9-0.333-2.283-0.617-4.15-0.85v0c-2.2-0.333-4.017-0.717-5.45-1.15-1.433-0.433-2.673-1.2-3.72-2.3-1.053-1.1-1.58-2.667-1.58-4.7v0c0-1.7 0.493-3.21 1.48-4.53 0.98-1.313 2.413-2.337 4.3-3.07 1.88-0.733 4.103-1.1 6.67-1.1v0c1.9 0 3.793 0.207 5.68 0.62 1.88 0.42 3.437 0.997 4.67 1.73v0l-2.6 5.55c-2.367-1.333-4.95-2-7.75-2v0c-1.667 0-2.917 0.233-3.75 0.7-0.833 0.467-1.25 1.067-1.25 1.8v0c0 0.833 0.45 1.417 1.35 1.75 0.9 0.333 2.333 0.65 4.3 0.95v0c2.2 0.367 4 0.757 5.4 1.17 1.4 0.42 2.617 1.18 3.65 2.28 1.033 1.1 1.55 2.633 1.55 4.6v0c0 1.667-0.5 3.15-1.5 4.45-1 1.3-2.457 2.307-4.37 3.02-1.92 0.72-4.197 1.08-6.83 1.08zM113.85 0l-8.5-10.55-3.75 3.7v6.85h-7.8v-37.1h7.8v21l11.4-10.8h9.3l-11.2 11.4 12.2 15.5z" fill="#6c82cf" fill-rule="nonzero" stroke="none" stroke-width="1" stroke-linecap="butt" stroke-linejoin="miter" stroke-miterlimit="10" stroke-dasharray="" stroke-dashoffset="0" font-family="none" font-weight="none" font-size="none" text-anchor="none" style="mix-blend-mode: normal" data-fill-palette-color="primary" opacity="1"></path><path transform="translate(0,48.7)" d="M44.1-35.6c4.133 0 7.35 1.207 9.65 3.62 2.3 2.42 3.45 5.913 3.45 10.48v0 21.5h-8.1v-21.25c0-2.467-0.64-4.327-1.92-5.58-1.287-1.247-2.98-1.87-5.08-1.87v0c-2.3 0-4.133 0.657-5.5 1.97-1.367 1.32-2.05 3.313-2.05 5.98v0 20.75h-8.1v-21.25c0-2.467-0.6-4.327-1.8-5.58-1.2-1.247-2.833-1.87-4.9-1.87v0c-2.267 0-4.083 0.657-5.45 1.97-1.367 1.32-2.05 3.313-2.05 5.98v0 20.75h-8.1v-35h7.85v4.3c1.067-1.567 2.483-2.777 4.25-3.63 1.767-0.847 3.8-1.27 6.1-1.27v0c2.4 0 4.5 0.443 6.3 1.33 1.8 0.88 3.183 2.153 4.15 3.82v0c1.2-1.667 2.773-2.94 4.72-3.82 1.953-0.887 4.147-1.33 6.58-1.33zM84.15-26.9h7.8v26.9h-7.45v-3.1c-1.933 2.333-4.733 3.5-8.4 3.5v0c-2.533 0-4.823-0.567-6.87-1.7-2.053-1.133-3.663-2.75-4.83-4.85-1.167-2.1-1.75-4.533-1.75-7.3v0c0-2.767 0.583-5.2 1.75-7.3 1.167-2.1 2.777-3.717 4.83-4.85 2.047-1.133 4.337-1.7 6.87-1.7v0c3.433 0 6.117 1.083 8.05 3.25v0zM77.45-6c1.967 0 3.6-0.677 4.9-2.03 1.3-1.347 1.95-3.153 1.95-5.42v0c0-2.267-0.65-4.077-1.95-5.43-1.3-1.347-2.933-2.02-4.9-2.02v0c-2 0-3.65 0.673-4.95 2.02-1.3 1.353-1.95 3.163-1.95 5.43v0c0 2.267 0.65 4.073 1.95 5.42 1.3 1.353 2.95 2.03 4.95 2.03zM115.5-27.3c3.333 0 6.027 1 8.08 3 2.047 2 3.07 4.967 3.07 8.9v0 15.4h-7.8v-14.2c0-2.133-0.467-3.727-1.4-4.78-0.933-1.047-2.283-1.57-4.05-1.57v0c-1.967 0-3.533 0.607-4.7 1.82-1.167 1.22-1.75 3.03-1.75 5.43v0 13.3h-7.8v-26.9h7.45v3.15c1.033-1.133 2.317-2.01 3.85-2.63 1.533-0.613 3.217-0.92 5.05-0.92zM153.5-26.9h7.8v26.9h-7.45v-3.1c-1.933 2.333-4.733 3.5-8.4 3.5v0c-2.533 0-4.823-0.567-6.87-1.7-2.053-1.133-3.663-2.75-4.83-4.85-1.167-2.1-1.75-4.533-1.75-7.3v0c0-2.767 0.583-5.2 1.75-7.3 1.167-2.1 2.777-3.717 4.83-4.85 2.047-1.133 4.337-1.7 6.87-1.7v0c3.433 0 6.117 1.083 8.05 3.25v0zM146.8-6c1.967 0 3.6-0.677 4.9-2.03 1.3-1.347 1.95-3.153 1.95-5.42v0c0-2.267-0.65-4.077-1.95-5.43-1.3-1.347-2.933-2.02-4.9-2.02v0c-2 0-3.65 0.673-4.95 2.02-1.3 1.353-1.95 3.163-1.95 5.43v0c0 2.267 0.65 4.073 1.95 5.42 1.3 1.353 2.95 2.03 4.95 2.03zM188.85-26.9h7.4v22.4c0 4.933-1.283 8.6-3.85 11-2.567 2.4-6.317 3.6-11.25 3.6v0c-2.6 0-5.067-0.317-7.4-0.95-2.333-0.633-4.267-1.55-5.8-2.75v0l3.1-5.6c1.133 0.933 2.567 1.677 4.3 2.23 1.733 0.547 3.467 0.82 5.2 0.82v0c2.7 0 4.693-0.61 5.98-1.83 1.28-1.213 1.92-3.053 1.92-5.52v0-1.15c-2.033 2.233-4.867 3.35-8.5 3.35v0c-2.467 0-4.723-0.543-6.77-1.63-2.053-1.08-3.68-2.603-4.88-4.57-1.2-1.967-1.8-4.233-1.8-6.8v0c0-2.567 0.6-4.833 1.8-6.8 1.2-1.967 2.827-3.493 4.88-4.58 2.047-1.08 4.303-1.62 6.77-1.62v0c3.9 0 6.867 1.283 8.9 3.85v0zM181.5-7.7c2.067 0 3.76-0.61 5.08-1.83 1.313-1.213 1.97-2.803 1.97-4.77v0c0-1.967-0.657-3.557-1.97-4.77-1.32-1.22-3.013-1.83-5.08-1.83v0c-2.067 0-3.767 0.61-5.1 1.83-1.333 1.213-2 2.803-2 4.77v0c0 1.967 0.667 3.557 2 4.77 1.333 1.22 3.033 1.83 5.1 1.83zM217.05-5.85c1.4 0 2.643-0.21 3.73-0.63 1.08-0.413 2.087-1.07 3.02-1.97v0l4.15 4.5c-2.533 2.9-6.233 4.35-11.1 4.35v0c-3.033 0-5.717-0.593-8.05-1.78-2.333-1.18-4.133-2.82-5.4-4.92-1.267-2.1-1.9-4.483-1.9-7.15v0c0-2.633 0.627-5.01 1.88-7.13 1.247-2.113 2.963-3.763 5.15-4.95 2.18-1.18 4.637-1.77 7.37-1.77v0c2.567 0 4.9 0.54 7 1.62 2.1 1.087 3.777 2.653 5.03 4.7 1.247 2.053 1.87 4.48 1.87 7.28v0l-19.9 3.85c0.567 1.333 1.46 2.333 2.68 3 1.213 0.667 2.703 1 4.47 1zM215.9-21.4c-1.967 0-3.567 0.633-4.8 1.9-1.233 1.267-1.883 3.017-1.95 5.25v0l13.1-2.55c-0.367-1.4-1.117-2.517-2.25-3.35-1.133-0.833-2.5-1.25-4.1-1.25zM269.5-27.3c3.367 0 6.043 0.99 8.03 2.97 1.98 1.987 2.97 4.963 2.97 8.93v0 15.4h-7.8v-14.2c0-2.133-0.44-3.727-1.32-4.78-0.887-1.047-2.147-1.57-3.78-1.57v0c-1.833 0-3.283 0.59-4.35 1.77-1.067 1.187-1.6 2.947-1.6 5.28v0 13.5h-7.8v-14.2c0-4.233-1.7-6.35-5.1-6.35v0c-1.8 0-3.233 0.59-4.3 1.77-1.067 1.187-1.6 2.947-1.6 5.28v0 13.5h-7.8v-26.9h7.45v3.1c1-1.133 2.227-2 3.68-2.6 1.447-0.6 3.037-0.9 4.77-0.9v0c1.9 0 3.617 0.373 5.15 1.12 1.533 0.753 2.767 1.847 3.7 3.28v0c1.1-1.4 2.493-2.483 4.18-3.25 1.68-0.767 3.52-1.15 5.52-1.15zM301.35-5.85c1.4 0 2.643-0.21 3.73-0.63 1.08-0.413 2.087-1.07 3.02-1.97v0l4.15 4.5c-2.533 2.9-6.233 4.35-11.1 4.35v0c-3.033 0-5.717-0.593-8.05-1.78-2.333-1.18-4.133-2.82-5.4-4.92-1.267-2.1-1.9-4.483-1.9-7.15v0c0-2.633 0.627-5.01 1.88-7.13 1.247-2.113 2.963-3.763 5.15-4.95 2.18-1.18 4.637-1.77 7.37-1.77v0c2.567 0 4.9 0.54 7 1.62 2.1 1.087 3.777 2.653 5.03 4.7 1.247 2.053 1.87 4.48 1.87 7.28v0l-19.9 3.85c0.567 1.333 1.46 2.333 2.68 3 1.213 0.667 2.703 1 4.47 1zM300.2-21.4c-1.967 0-3.567 0.633-4.8 1.9-1.233 1.267-1.883 3.017-1.95 5.25v0l13.1-2.55c-0.367-1.4-1.117-2.517-2.25-3.35-1.133-0.833-2.5-1.25-4.1-1.25zM335.7-27.3c3.333 0 6.027 1 8.08 3 2.047 2 3.07 4.967 3.07 8.9v0 15.4h-7.8v-14.2c0-2.133-0.467-3.727-1.4-4.78-0.933-1.047-2.283-1.57-4.05-1.57v0c-1.967 0-3.533 0.607-4.7 1.82-1.167 1.22-1.75 3.03-1.75 5.43v0 13.3h-7.8v-26.9h7.45v3.15c1.033-1.133 2.317-2.01 3.85-2.63 1.533-0.613 3.217-0.92 5.05-0.92zM368.05-6.8l2.05 5.5c-0.767 0.567-1.707 0.99-2.82 1.27-1.12 0.287-2.28 0.43-3.48 0.43v0c-3.233 0-5.717-0.817-7.45-2.45-1.733-1.633-2.6-4.033-2.6-7.2v0-23.6h7.8v6.55h6.65v6h-6.65v10.95c0 1.133 0.283 2.007 0.85 2.62 0.567 0.62 1.383 0.93 2.45 0.93v0c1.2 0 2.267-0.333 3.2-1z" fill="#6c82cf" fill-rule="nonzero" stroke="none" stroke-width="1" stroke-linecap="butt" stroke-linejoin="miter" stroke-miterlimit="10" stroke-dasharray="" stroke-dashoffset="0" font-family="none" font-weight="none" font-size="none" text-anchor="none" style="mix-blend-mode: normal" data-fill-palette-color="primary" opacity="1"></path></g></svg></g></svg></g></svg></g></svg></g><g transform="matrix(1,0,0,1,0,0.2631756250853883)"><svg viewBox="0 0 95.71417394683411 105.27025003415767" height="105.27025003415767" width="95.71417394683411"><g><svg xmlns="http://www.w3.org/2000/svg" xmlns:xlink="http://www.w3.org/1999/xlink" version="1.0" x="0" y="0" viewBox="2 0 12.883127534945315 14.169375348513816" style="enable-background:new 0 0 16 16;" xml:space="preserve" height="105.27025003415767" width="95.71417394683411" class="icon-icon-0" data-fill-palette-color="accent" id="icon-0"><path d="M10.216 14.068c-0.122 0.135-0.322 0.135-0.444 0.001l-2.769-3.084c-0.123-0.135-0.118-0.351 0.011-0.479l0.475-0.476c0.129-0.128 0.338-0.127 0.464 0.004L9.758 11.9c0.127 0.131 0.332 0.128 0.454-0.007l3.424-3.752c0.123-0.134 0.334-0.145 0.47-0.022l0.42 0.33c0.458 0.458 0.494 0.506 0 1L10.216 14.068z" fill="#263e91" data-fill-palette-color="accent"></path><path d="M7.5 2C7 2 7 3 7 3h1C8 3 8 2 7.5 2z" fill="#263e91" data-fill-palette-color="accent"></path><path d="M12 2h-2C9.914 1 9 0 7.5 0S5.086 1 5 2H3c0 0-1 0-1 1 0 0.815 0 9 0 10s1 1 1 1h5.628l-2.5-2.485c-0.42-0.461-0.191-1.052 0.25-1.492l0.75-0.747c0.217-0.217 0.444-0.248 0.75-0.248 0.309 0 0.785 0.279 1 0.502l1.145 1.25L13 7.571C13 7.571 13 4 13 3S12 2 12 2zM4.5 8H4c0 0-0.5 0-0.5-0.5S4 7 4 7h0.5C4.5 7 5 7 5 7.5S4.5 8 4.5 8zM4.5 6H4c0 0-0.5 0-0.5-0.5S4 5 4 5h0.5C4.5 5 5 5 5 5.5S4.5 6 4.5 6zM11 8H6.5C6.5 8 6 8 6 7.5S6.5 7 6.5 7H11c0 0 0.5 0 0.5 0.5S11 8 11 8zM11 6H6.5C6.5 6 6 6 6 5.5S6.5 5 6.5 5H11c0 0 0.5 0 0.5 0.5S11 6 11 6zM3 4c0 0 0-1 1-1s2 0 2 0 0-1.938 1.5-1.938S9.027 3 9 3c0 0 1 0 2 0s1 1 1 1H3z" fill="#263e91" data-fill-palette-color="accent"></path></svg></g></svg></g></svg></g><defs></defs></svg><rect width="395.52" height="80.62412253113254" fill="none" stroke="none" visibility="hidden"></rect></g></svg></g></svg>